<?xml version="1.0" encoding="UTF-8"?>
<svg xmlns="http://www.w3.org/2000/svg" width="622.13" height="881.02" viewBox="0 0 622.13 881.02">
  <g id="SidePanel_L3">
    <g id="SidePanel_L3-2" data-name="SidePanel_L3">
      <g id="SidePanel_L31">
        <path d="M586.92,787c3.88-4.4,8.05-9.7,12.11-15.92,3.24-4.96,5.89-9.72,8.08-14.1-3.83.66-10.18,1.25-17.74-.33-7.52-1.58-13.07-4.66-16.31-6.8-.05,2.31-.06,2.96-.05,2.96l.04-1.04s-.02.69-.09,3.01c4.66,10.75,9.33,21.48,13.99,32.23h-.03,0Z" fill="#fff" stroke="#000" stroke-miterlimit="10"/>
      </g>
    </g>
  </g>
  <g id="SidePanel_L2">
    <g id="SidePanel_L2-2" data-name="SidePanel_L2">
      <g id="SidePanel_L21">
        <path d="M613.44,499.48c2.29,11.66,5.55,30.66,7.3,54.3,1.51,20.43,2.05,46.42-6.2,132.51-1.64,17.22-4.09,41.47-7.46,70.7-3.83.66-10.18,1.25-17.74-.33-7.52-1.58-13.07-4.66-16.31-6.8,1.03-46.86,1.08-95.54-.09-145.92-.89-38.56-2.44-76.08-4.54-112.49,2.88.95,7.43,2.15,13.07,2.37,8.29.31,11.84-1.78,18.3-.77,3.34.53,8.15,1.99,13.64,6.43h.03Z" fill="#fff" stroke="#000" stroke-miterlimit="10"/>
      </g>
    </g>
  </g>
  <g id="SidePanel_L1">
    <g id="SidePanel_L1-2" data-name="SidePanel_L1">
      <g id="SidePanel_L11">
        <path d="M565.86,451.31l2.56,40.13c2.41.82,6.09,1.86,10.64,2.24,8.53.72,12.31-1.48,18.75-.89,3.87.36,9.3,1.77,15.63,6.7.85-3.7,1.98-10.74,0-19.2-2.23-9.56-7.24-15.88-9.82-18.75-2.31-2.62-5.68-5.53-10.27-6.7-5.16-1.32-8.21.47-14.73,0-3.3-.23-7.68-1.06-12.75-3.52h-.01Z" fill="#fff" stroke="#000" stroke-miterlimit="10"/>
      </g>
    </g>
  </g>
  <g id="SidePanel_R3">
    <g id="SidePanel_R3-2" data-name="SidePanel_R3">
      <g id="SidePanel_R31">
        <path d="M34.32,785.53c-3.65-4.13-7.59-9.16-11.43-15.16-3.01-4.71-5.43-9.21-7.38-13.33,4.19.59,10.41.99,17.74-.33,6.77-1.22,12.1-3.5,15.71-5.38-4.89,11.4-9.76,22.81-14.64,34.21h0,0Z" fill="#fff" stroke="#000" stroke-miterlimit="10"/>
      </g>
    </g>
  </g>
  <g id="SidePanel_R2">
    <g id="SidePanel_R2-2" data-name="SidePanel_R2">
      <g id="SidePanel_R21">
        <path d="M8.7,499.48c-2.29,11.66-5.55,30.66-7.3,54.3-1.51,20.43-2.05,46.42,6.2,132.51,1.64,17.22,4.09,41.47,7.46,70.7,3.83.66,10.18,1.25,17.74-.33,7.52-1.58,13.07-4.66,16.31-6.8-1.03-46.86-1.08-95.54.09-145.92.89-38.56,2.44-76.08,4.54-112.49-2.88.95-7.43,2.15-13.07,2.37-8.29.31-11.84-1.78-18.3-.77-3.34.53-8.15,1.99-13.64,6.43h-.03Z" fill="#fff" stroke="#000" stroke-miterlimit="10"/>
      </g>
    </g>
  </g>
  <g id="SidePanel_R1">
    <g id="SidePanel_R1-2" data-name="SidePanel_R1">
      <g id="SidePanel_R11">
        <path d="M56.57,451.31l-2.56,40.13c-2.41.82-6.09,1.86-10.64,2.24-8.53.72-12.31-1.48-18.75-.89-3.87.36-9.3,1.77-15.63,6.7-.85-3.7-1.98-10.74,0-19.2,2.23-9.56,7.24-15.88,9.82-18.75,2.31-2.62,5.68-5.53,10.27-6.7,5.16-1.32,8.21.47,14.73,0,3.3-.23,7.68-1.06,12.75-3.52h.01Z" fill="#fff" stroke="#000" stroke-miterlimit="10"/>
      </g>
    </g>
  </g>
  <g id="Side_R">
    <g id="Side_R-2" data-name="Side_R">
      <g id="Side_R1">
        <path d="M22.88,457.94c1.34-50.33,5.95-92.54,10.65-124.69,1.77-12.12,5.87-38.61,13.22-72.07,5.32-24.19,9.46-42.82,17.55-66.85,7.84-23.31,16.18-42.14,22.58-55.43-6.67,29.61-11.54,56.1-15.15,78.6-12.02,74.86-14.52,132.83-15.24,155.8-.95,30.39-.61,56.97.17,78.59-5.39,2.73-9.77,3.33-12.74,3.38-4.77.07-7.37-1.22-12.33-.48-3.88.58-6.86,2.05-8.72,3.14v.02h.01Z" fill="#fff" stroke="#000" stroke-miterlimit="10"/>
      </g>
    </g>
  </g>
  <g id="Side_L">
    <g id="Side_L-2" data-name="Side_L">
      <g id="Side_L1">
        <path d="M565.85,450.69c7.05,3.35,11.71,3.83,14.74,3.59.74-.06,3.03-.31,6.33-.42,2.63-.1,4.81-.07,6.26-.04-1.01-23.28-2.39-42.32-3.45-55.46-.96-11.91-3.35-34.4-8.11-78.88-3.17-29.61-3.9-36.09-5.37-46.57-2.76-19.59-4.61-32.73-8.82-50.63,0,0-6.04-25.71-17.44-55.79-2.66-7-5.68-14.37-10.4-23.1-3.93-7.25-7.73-13-10.51-16.94,2.51,10.88,5.71,25.47,9.09,42.74,1.43,7.36,7.45,38.51,13.36,82.53,7.24,53.89,10.22,96.48,11.44,116.53,1.87,30.52,2.67,58.2,2.88,82.45h0Z" fill="#fff" stroke="#000" stroke-miterlimit="10"/>
      </g>
    </g>
  </g>
  <g id="Bottom">
    <g id="Bottom-2" data-name="Bottom">
      <g id="Bottom1">
        <g id="uuid-50c9c78f-4ca0-4c87-8270-b22a63da4020">
          <path d="M145.75,797.17c-4.86,9.97-9.73,19.92-14.59,29.89,53.8,5.31,113.07,8.73,177.02,8.79,65.32.06,125.76-3.39,180.52-8.79-5-9.97-9.98-19.92-14.98-29.89-52,3.02-106.91,4.76-164.5,4.75-57.21,0-111.8-1.76-163.48-4.75h0Z" fill="#fff" stroke="#000" stroke-miterlimit="10"/>
        </g>
      </g>
    </g>
  </g>
  <g id="Back_Side_R">
    <g id="Back_Side_R-2" data-name="Back_Side_R">
      <g id="Back_Side_R1">
        <path d="M87.69,137.54c.33-.92.84-2.23,1.57-3.75.98-2.02,4.53-8.92,15.67-17.35,4.81-3.65,12.29-8.51,22.53-12.39-10.56,74.33-18.75,156.6-22.35,245.82-3.44,85.29-2.15,164.56,1.93,236.74-7.16,25.16-15.37,51.44-24.85,78.66-10.39,29.89-21.27,57.97-32.28,84.2-.88-41.01-1.05-83.45-.33-127.22.73-44.93,2.33-88.43,4.63-130.41.85-13.38,1.71-26.75,2.56-40.13-1.86-58.15.16-125.03,9.87-198.41,5.5-41.62,12.83-80.29,21.06-115.75h-.01Z" fill="#fff" stroke="#000" stroke-miterlimit="10"/>
      </g>
    </g>
  </g>
  <g id="Back_Side_L">
    <g id="Back_Side_L-2" data-name="Back_Side_L">
      <g id="Back_Side_L1">
        <path d="M498.57,104.05c9.2,3.07,20.68,8.83,28.62,20.04.69.99,1.35,1.98,1.94,2.97,14.38,65.12,26.26,138.49,32.37,219.09,2.77,36.6,4.13,71.71,4.4,105.17.85,13.38,1.71,26.75,2.56,40.13,2.51,43.65,4.24,89,4.98,135.94.69,43.66.48,85.97-.47,126.82-9.05-21.21-18-43.55-26.67-67.01-10.66-28.84-19.92-56.7-28-83.36,2.13-67.72,2.41-139.03.25-213.61-2.97-101.7-10.15-197.33-20-286.18h.02,0Z" fill="#fff" stroke="#000" stroke-miterlimit="10"/>
      </g>
    </g>
  </g>
  <g id="Band_Top">
    <g id="Band_Top-2" data-name="Band_Top">
      <g id="Band_Top1">
        <path d="M269.09,65.1c4.9-.38,10.04-.67,15.41-.82,4.91-.14,9.63-.14,14.16-.05,1.73-18.39,4.84-44.4,8.93-44.43,4.17-.02,7.71,26.88,9.67,45.19,5.21.22,10.54.51,15.99.89,4.76.33,9.42.72,13.99,1.15-2.6-13.43-6.04-24.27-8.88-32.01-6.09-16.61-10.6-22.23-14.57-25.96-3.74-3.52-9.77-9.04-17.65-8.53-5.74.37-9.77,3.77-12.78,6.37-6.39,5.54-10.03,12.22-14.68,24.93-3.04,8.32-6.64,19.54-9.6,33.26h.01Z" fill="#fff" stroke="#000" stroke-miterlimit="10"/>
      </g>
    </g>
  </g>
  <g id="Band_1">
    <g id="Band_1-2" data-name="Band_1">
      <g id="Band_11">
        <path d="M127.21,104.05h44.35v53.7h-51.24c2.3-17.9,4.6-35.81,6.9-53.7h-.01Z" fill="#fff" stroke="#000" stroke-miterlimit="10"/>
      </g>
    </g>
  </g>
  <g id="Band_2">
    <g id="Band_2-2" data-name="Band_2">
      <g id="Band_21">
        <path d="M276.03,104.05c.67,7.72,1.26,15.58,1.79,23.59.67,10.24,1.19,20.28,1.56,30.1h63.6c.32-7.68.7-15.47,1.17-23.36.61-10.3,1.32-20.42,2.13-30.34h-70.25,0Z" fill="#fff" stroke="#000" stroke-miterlimit="10"/>
      </g>
    </g>
  </g>
  <g id="Band_3">
    <g id="Band_3-2" data-name="Band_3">
      <g id="Band_31">
        <path d="M449.78,104.05h48.82c1.86,17.9,3.71,35.81,5.58,53.7h-55.15c-.12-8.73-.12-17.69,0-26.85s.38-18.12.75-26.85h0Z" fill="#fff" stroke="#000" stroke-miterlimit="10"/>
      </g>
    </g>
  </g>
  <g id="Band_4">
    <g id="Band_4-2" data-name="Band_4">
      <g id="Band_41">
        <path d="M105.27,353.95h52.18c-1.36,9.67-2.81,19.45-4.34,29.34-1.48,9.56-3.02,19.01-4.59,28.34h-44.82l1.57-57.68h0Z" fill="#fff" stroke="#000" stroke-miterlimit="10"/>
      </g>
    </g>
  </g>
  <g id="Band_5">
    <g id="Band_5-2" data-name="Band_5">
      <g id="Band_51">
        <path d="M271.96,353.93h76.11c.93,8.53,1.92,17.14,2.96,25.81,1.29,10.75,2.65,21.37,4.04,31.87h-90.27c1.55-11.09,3.02-22.35,4.4-33.79.98-8.04,1.89-16,2.75-23.9h.01Z" fill="#fff" stroke="#000" stroke-miterlimit="10"/>
      </g>
    </g>
  </g>
  <g id="Band_6">
    <g id="Band_6-2" data-name="Band_6">
      <g id="Band_61">
        <path d="M463.3,353.93h53.55c.54,9.13.96,18.49,1.26,28.09.3,9.59.45,18.95.47,28.09h-46.71c-1.63-9.26-3.19-18.74-4.68-28.42-1.43-9.41-2.73-18.66-3.9-27.75h.01Z" fill="#fff" stroke="#000" stroke-miterlimit="10"/>
      </g>
    </g>
  </g>
  <g id="Back_Strap_R">
    <g id="Back_Strap_R-2" data-name="Back_Strap_R">
      <g id="Back_Strap_R1">
        <path d="M171.61,94.61c-.02-.53-.16-5.18,3.59-8.31,3.09-2.57,6.65-2.33,7.38-2.26,27.09-.53,54.18-1.06,81.27-1.6.68,0,5.17.14,8.25,3.86,2.31,2.78,2.45,5.9,2.45,6.84,8.25,92.87,9.77,219-17.28,364.6-31.96,171.99-91.73,306.34-140.49,396.14-16.12,25.14-48.84,32.47-72.03,18.35-20.16-12.27-29.56-38.59-21.25-62.83,43.23-92.96,90.57-218.14,119.98-370.97,25.54-132.73,30.61-250.26,28.1-343.82h.03,0Z" fill="#fff" stroke="#000" stroke-miterlimit="10"/>
      </g>
    </g>
  </g>
  <g id="Back_Strap_L">
    <g id="Back_Strap_L-2" data-name="Back_Strap_L">
      <g id="Back_Strap_L1">
        <path d="M449.41,95.79c.02-.53.16-5.18-3.59-8.31-3.09-2.57-6.65-2.33-7.38-2.26-27.09-.53-54.18-1.06-81.27-1.6-.68,0-5.17.14-8.25,3.86-2.31,2.78-2.45,5.9-2.45,6.84-8.25,92.87-9.77,219,17.28,364.6,31.96,171.99,91.73,306.34,140.49,396.14,16.12,25.14,48.84,32.47,72.03,18.35,20.16-12.27,29.56-38.59,21.25-62.83-43.23-92.96-90.57-218.14-119.98-370.97-25.54-132.73-30.61-250.26-28.1-343.82h-.03,0Z" fill="#fff" stroke="#000" stroke-miterlimit="10"/>
      </g>
    </g>
  </g>
  <g id="Back_Main_1">
    <g id="Back_Main_1-2" data-name="Back_Main_1">
      <g id="Back_Main_11">
        <path d="M127.47,104.05h44.35c-.09-2.36-.16-5.4-.2-8.95-.05-5.19,1.52-6.3,2.31-7.51,2.11-3.25,5.91-3.5,7.71-3.52,12.99-.17,25.96-.73,38.96-.84,15.21-.12,28.45-.66,43.67-.77,1.29,0,5.44,1.31,7.46,3.4,1.29,1.35,2.61,2.2,2.94,8.39.14,2.6.33,5.11,1.09,9.81h69.9c.07-3.51.49-6.98.78-9.14.88-6.58,2.61-7.4,3.41-8.11,2-1.79,6.27-3.2,7.33-3.17,13.64.46,25.63.06,39.27.43,29.72.82,40.15,1.37,40.15,1.37,1.61-.07,8.63.35,11,3.12,1.4,1.64,1.61,3.9,1.99,8.35.25,2.99.22,5.47.15,7.15h48.82c-24.76-9.2-59.06-20.23-100.91-28.52-14.76-2.92-51.65-10.22-89.53-11.32-34.89-1.01-99.93,2.4-180.62,39.84h-.03Z" fill="#fff" stroke="#000" stroke-miterlimit="10"/>
      </g>
    </g>
  </g>
  <g id="Back_Main_2">
    <g id="Back_Main_2-2" data-name="Back_Main_2">
      <g id="Back_Main_21">
        <path d="M120.56,157.74c-4.18,33.2-7.74,68-10.46,104.31-2.37,31.71-3.93,62.37-4.84,91.88h52.18c4.27-32.96,7.84-67.81,10.39-104.44,2.21-31.86,3.48-62.48,3.97-91.76h-51.24Z" fill="#fff" stroke="#000" stroke-miterlimit="10"/>
      </g>
    </g>
  </g>
  <g id="Back_Main_3">
    <g id="Back_Main_3-2" data-name="Back_Main_3">
      <g id="Back_Main_31">
        <path d="M278.42,157.74h63.6c-1.29,33.01-1.51,69.98-.17,107.33,1.14,31.81,3.51,60.38,6.36,88.86h-76.53c3.08-30.26,6.05-61.17,7.19-95.38,1.16-35.09.73-69.72-.42-100.81h-.03Z" fill="#fff" stroke="#000" stroke-miterlimit="10"/>
      </g>
    </g>
  </g>
  <g id="Back_Main_4">
    <g id="Back_Main_4-2" data-name="Back_Main_4">
      <g id="Back_Main_41">
        <path d="M448.95,157.74c.31,33.38,2.07,69.84,4.89,107.01,2.4,31.58,6.17,60.63,9.98,89.19h53.55c-1.26-31.92-2.98-64.64-5.24-98.09-2.26-33.53-4.97-66.24-8.03-98.09h-55.15v-.02h0Z" fill="#fff" stroke="#000" stroke-miterlimit="10"/>
      </g>
    </g>
  </g>
  <g id="Back_Main_5">
    <g id="Back_Main_5-2" data-name="Back_Main_5">
      <g id="Back_Main_51">
        <path d="M103.69,411.62h44.82c-5.58,32.1-12.47,65.86-20.98,101.02-6.25,25.76-12.9,50.42-19.84,73.96-1.58-23.77-2.78-48.3-3.54-73.54-1.05-35.14-1.14-68.98-.47-101.43h.01Z" fill="#fff" stroke="#000" stroke-miterlimit="10"/>
      </g>
    </g>
  </g>
  <g id="Back_Main_6">
    <g id="Back_Main_6-2" data-name="Back_Main_6">
      <g id="Back_Main_61">
        <path d="M265.23,411.62h90.27c8.05,56.66,22.05,122.05,43.47,193.16,22.46,74.59,49.11,138.97,74.94,192.39-52,3.02-106.91,4.76-164.5,4.75-57.21,0-111.8-1.76-163.48-4.75,24.09-49.11,48.64-107.06,69.97-173.38,25.24-78.54,40.52-150.59,49.34-212.19h-.01v.02h0Z" fill="#fff" stroke="#000" stroke-miterlimit="10"/>
      </g>
    </g>
  </g>
  <g id="Back_Main_7">
    <g id="Back_Main_7-2" data-name="Back_Main_7">
      <g id="Back_Main_71">
        <path d="M472.39,410.11h46.71c.45,30.71.62,61.91.51,93.58-.12,33.28-.56,66.05-1.27,98.28-9.93-31.71-19.44-65.91-28-102.48-7.28-31.13-13.18-60.99-17.95-89.37h0Z" fill="#fff" stroke="#000" stroke-miterlimit="10"/>
      </g>
    </g>
  </g>
</svg>