<?xml version="1.0" encoding="UTF-8"?>
<svg xmlns="http://www.w3.org/2000/svg" version="1.1" viewBox="0 0 992.13 992.13">
  <!-- Generator: Adobe Illustrator 30.3.0, SVG Export Plug-In . SVG Version: 2.1.3 Build 182)  -->
  <g id="Bottom">
    <g id="Bottom1" data-name="Bottom">
      <path d="M283.65,912.56c64.51,7.45,137.06,12.44,216.35,12.44s151.89-5,216.42-12.44v-30.11c-67.33,4.99-139.65,8.01-216.42,8.01-67.52,0-139.86-2.34-216.42-8.01.02,10.04.04,20.07.07,30.11h0Z" fill="#fff" stroke="#000" stroke-miterlimit="10"/>
    </g>
  </g>
  <g id="SidePanel_x5F_L1">
    <g id="SidePanel_x5F_L11" data-name="SidePanel_x5F_L1">
      <path d="M240.57,533.13l-2.61,40.9c-2.46.84-6.21,1.89-10.84,2.28-8.7.74-12.54-1.51-19.11-.91-3.95.36-9.49,1.81-15.92,6.83-.87-3.77-2.01-10.94,0-19.57,2.28-9.75,7.38-16.19,10.02-19.11,2.35-2.68,5.78-5.63,10.47-6.83,5.26-1.34,8.37.47,15.01,0,3.37-.24,7.83-1.08,13-3.59h-.01Z" fill="#fff" stroke="#000" stroke-miterlimit="10"/>
    </g>
  </g>
  <g id="SidePanel_x5F_L2">
    <g id="SidePanel_x5F_L21" data-name="SidePanel_x5F_L2">
      <path d="M192.08,582.22c-2.34,11.88-5.66,31.25-7.44,55.33-1.54,20.83-2.09,47.31,6.32,135.05,1.68,17.55,4.17,42.26,7.6,72.05,3.91.67,10.38,1.28,18.08-.34,7.67-1.61,13.31-4.75,16.62-6.93-1.04-47.76-1.1-97.37.08-148.71.9-39.3,2.48-77.53,4.62-114.65-2.94.97-7.58,2.2-13.32,2.42-8.45.32-12.06-1.82-18.66-.78-3.41.54-8.31,2.03-13.9,6.56h0Z" fill="#fff" stroke="#000" stroke-miterlimit="10"/>
    </g>
  </g>
  <g id="SidePanel_x5F_L3">
    <g id="SidePanel_x5F_L31" data-name="SidePanel_x5F_L3">
      <path d="M234.71,887.05c-5.46-3.68-12.04-8.87-18.57-15.99-8.82-9.64-14.27-19.25-17.59-26.41,3.91.67,10.38,1.28,18.08-.34,7.67-1.61,13.31-4.75,16.62-6.93.17,7.71.36,15.46.59,23.26.26,8.87.55,17.67.87,26.41h0Z" fill="#fff" stroke="#000" stroke-miterlimit="10"/>
    </g>
  </g>
  <g id="SidePanel_x5F_R1">
    <g id="SidePanel_x5F_R11" data-name="SidePanel_x5F_R1">
      <path d="M759.42,532.73l2.61,40.9c2.46.84,6.21,1.89,10.84,2.28,8.7.74,12.54-1.51,19.11-.91,3.95.36,9.49,1.81,15.92,6.83.87-3.77,2.01-10.94,0-19.57-2.28-9.75-7.38-16.19-10.02-19.11-2.35-2.68-5.78-5.63-10.47-6.83-5.26-1.34-8.37.47-15.01,0-3.37-.24-7.83-1.08-13-3.59h.01Z" fill="#fff" stroke="#000" stroke-miterlimit="10"/>
    </g>
  </g>
  <g id="SidePanel_x5F_R2">
    <g id="SidePanel_x5F_R21" data-name="SidePanel_x5F_R2">
      <path d="M807.92,581.82c2.34,11.88,5.66,31.25,7.44,55.33,1.54,20.83,2.09,47.31-6.32,135.05-1.68,17.55-4.17,42.26-7.6,72.05-3.91.67-10.38,1.28-18.08-.34-7.67-1.61-13.31-4.75-16.62-6.93,1.04-47.76,1.1-97.37-.08-148.71-.9-39.3-2.48-77.53-4.62-114.65,2.94.97,7.58,2.2,13.32,2.42,8.45.32,12.06-1.82,18.66-.78,3.41.54,8.31,2.03,13.9,6.56h0Z" fill="#fff" stroke="#000" stroke-miterlimit="10"/>
    </g>
  </g>
  <g id="SidePanel_x5F_R3">
    <g id="SidePanel_x5F_R31" data-name="SidePanel_x5F_R3">
      <path d="M765.28,886.65c5.46-3.68,12.04-8.87,18.57-15.99,8.82-9.64,14.27-19.25,17.59-26.41-3.91.67-10.38,1.28-18.08-.34-7.67-1.61-13.31-4.75-16.62-6.93-.17,7.71-.36,15.46-.59,23.26-.26,8.87-.55,17.67-.87,26.41h0Z" fill="#fff" stroke="#000" stroke-miterlimit="10"/>
    </g>
  </g>
  <g id="Side_x5F_Front">
    <g id="Side_x5F_Front1" data-name="Side_x5F_Front">
      <path d="M240.64,532.23c-.04.56-.39,1.05-.91,1.27-4.08,1.74-7.45,2.5-9.7,2.86-1.09.18-2.41.39-4.19.44-2.34.07-3.4-.2-6.61-.39-2.52-.15-3.77-.22-4.87-.12-1.42.12-3.42.54-5.8,1.89-1.03.58-2.3-.14-2.27-1.32.98-38,4.46-90.85,15.53-152.93,26.48-148.51,53.53-177.52,63.73-186.32,28.09-24.27,62.66-33.97,97.5-43.75,40.32-11.31,75.27-13.89,99.36-14.14h.09c25.64,1.16,62.71,1.52,105.5,10.55,69.18,14.58,103.09,24.67,129.96,48.8,11.42,10.27,32.87,36.75,56.9,199.83,8.15,55.29,11.24,102.06,12.49,135.59.04.94-.79,1.66-1.73,1.53-.73-.1-1.56-.18-2.48-.21-2.96-.09-4.35.45-6.88.66-3.24.27-5.71-.21-7.88-.64-2.1-.41-4.97-1.18-8.2-2.7-.49-.23-.81-.71-.85-1.25-2.33-32.43-5.11-76.91-11.14-125.05-1.25-9.97-2.25-23.2-7.03-65.02-3.22-28.18-2.98-23.67-5.22-43.86-1.02-9.16-1.65-12.88-4.25-29.66-3.17-20.42-7.41-37.33-10.9-44.17-5.43-10.61-12.62-17.78-17.73-22.09-.14-.12-.3-.21-.47-.27-74.35-26.47-147.65-36.91-220.14-35.24-57.4,1.79-118.1,11.31-184.92,35.2-.24.09-.45.22-.62.41-15.36,16.89-32.05,78.44-38.91,151.84-6.28,67.24-13.61,127.23-17.37,178.26l-.03.02Z" fill="#fff" stroke="#000" stroke-miterlimit="10"/>
    </g>
  </g>
  <g id="Front_x5F_Side_x5F_R">
    <g id="Front_x5F_Side_x5F_R1" data-name="Front_x5F_Side_x5F_R">
      <path d="M702.88,201.85l13.53,235.68v475.03c5.77-.13,13.26-.85,21.72-3.16,7.58-2.07,13.8-4.83,18.56-7.36,1.21-.5,4.25-1.93,6.47-5.3,2.78-4.21,2.35-8.54,2.2-9.7,2.8-75.91,3.15-156.41.12-241-2.16-60.2-6.92-141.82-14.98-217.45-11.17-104.84-18.52-182.05-29.68-204.48-5.73-11.52-13.45-18.68-17.94-22.27h0Z" fill="#fff" stroke="#000" stroke-miterlimit="10"/>
    </g>
  </g>
  <g id="Front_x5F_Side_x5F_L">
    <g id="Front_x5F_Side_x5F_L1" data-name="Front_x5F_Side_x5F_L">
      <path d="M297.18,201.85l-13.53,235.68v475.03c-5.77-.13-13.26-.85-21.72-3.16-7.58-2.07-13.8-4.83-18.56-7.36-1.21-.5-4.25-1.93-6.47-5.3-2.78-4.21-2.35-8.54-2.2-9.7-3.81-95.96-1.78-177.68-.12-241,1.84-70.03,9.13-155.54,14.64-205.11,0,0,9.51-104.58,16.49-144.75.25-1.41.51-2.84.51-2.84,6.76-31.57,8.11-40.29,18.36-68.9,3.42-9.54,7.65-16.46,12.58-22.61h.01Z" fill="#fff" stroke="#000" stroke-miterlimit="10"/>
    </g>
  </g>
  <g id="Front_x5F_Main_x5F_Top">
    <g id="Front_x5F_Main_x5F_Top1" data-name="Front_x5F_Main_x5F_Top">
      <path d="M283.58,440.94c65.73-6.43,138.17-10.57,216.42-10.57,66.04,0,138.55,2.94,216.42,10.57-4.51-79.69-9.03-159.39-13.53-239.09-44.44-15.96-114.85-35.34-202.87-35.33-88,0-158.38,19.37-202.81,35.33-4.54,79.69-9.07,159.39-13.6,239.09h-.01Z" fill="#fff" stroke="#000" stroke-miterlimit="10"/>
    </g>
  </g>
  <g id="Front_x5F_Main_x5F_Bottom">
    <g id="Front_x5F_Main_x5F_Bottom1" data-name="Front_x5F_Main_x5F_Bottom">
      <path d="M283.58,440.94v441.51c67.88,5.03,140.81,8.06,218.24,8.01,76.05-.05,147.77-3.06,214.59-8.01v-441.51c-65.73-6.43-138.17-10.57-216.42-10.57-66.04,0-138.55,2.94-216.42,10.57h.01Z" fill="#fff" stroke="#000" stroke-miterlimit="10"/>
    </g>
  </g>
  <g id="Front_x5F_Logo">
    <g id="Front_x5F_Logo1" data-name="Front_x5F_Logo">
      <path d="M620.91,786.5l-2.25,66.85c-.09,2.8,2.15,5.13,4.96,5.13h66.08c3.5,0,6.33-2.84,6.33-6.33v-67.02c0-2.11-1.71-3.82-3.82-3.82h-65.93c-2.9,0-5.28,2.3-5.38,5.2h.01Z" fill="#fff" stroke="#000" stroke-miterlimit="10"/>
    </g>
  </g>
  <g id="Band_x5F_Top">
    <g id="Band_x5F_Top1" data-name="Band_x5F_Top">
      <path d="M506.11,140.69c-1.74-16.8-5.31-46.09-9.66-46.08-4.33,0-7.66,28.46-9.31,45.3-4.85-.2-9.93-.26-15.03.03s-10.09.48-15.1.85c2.66-19.64,13.97-48.14,25.34-59.94,5.63-5.85,9.55-5.76,14.36-5.85,4.91-.09,11.05,3.8,12.69,5.37,11.93,11.43,27.25,47.02,27.25,62.4-5.57-.8-9.79-.79-15.06-1.24-5.3-.46-10.55-.63-15.49-.85h.01Z" fill="#fff" stroke="#000" stroke-miterlimit="10"/>
    </g>
  </g>
</svg>